<?xml version="1.0" standalone="no"?>
<!DOCTYPE svg PUBLIC "-//W3C//DTD SVG 20010904//EN"
 "http://www.w3.org/TR/2001/REC-SVG-20010904/DTD/svg10.dtd">
<svg version="1.0" xmlns="http://www.w3.org/2000/svg"
 width="500.000000pt" height="500.000000pt" viewBox="0 0 500.000000 500.000000"
 preserveAspectRatio="xMidYMid meet">

<g transform="translate(0.000000,500.000000) scale(0.100000,-0.100000)"
fill="#000000" stroke="none">
<path d="M450 4921 c0 -3 36 -48 80 -98 l80 -93 0 -340 0 -340 -22 0 c-33 -1
-99 -33 -125 -61 -28 -31 -59 -95 -68 -139 l-8 -35 34 33 c44 43 110 74 151
70 30 -3 33 -6 36 -39 3 -36 2 -36 -58 -58 -68 -25 -127 -71 -116 -89 5 -9 17
-5 40 13 29 22 105 55 127 55 5 0 9 -160 9 -356 l0 -357 -86 -93 -86 -94 601
0 601 0 -35 53 c-74 111 -131 251 -155 380 -7 37 -15 67 -19 67 -3 0 -19 -35
-35 -78 -67 -180 -118 -244 -218 -276 -57 -17 -244 -40 -259 -30 -5 3 -9 172
-9 395 l0 389 117 0 c115 0 116 0 98 20 -16 18 -31 20 -126 20 l-109 0 -2
-412 -3 -413 -35 0 -35 0 -3 453 -2 452 148 0 149 0 34 -67 c19 -37 49 -95 66
-128 l33 -60 -1 325 -1 325 -65 -132 -64 -133 -100 0 -99 0 2 308 3 307 113 3
c151 4 178 -5 253 -81 l62 -62 -24 44 c-32 59 -84 109 -128 121 -52 16 -179
24 -244 16 l-57 -7 -2 -322 -3 -322 -37 -3 -38 -3 0 369 0 370 86 7 c96 8 192
3 273 -15 90 -20 157 -111 206 -275 l18 -60 17 65 c26 101 69 213 119 316 l47
94 -516 1 c-283 1 -536 3 -562 4 -27 1 -48 0 -48 -4z"/>
<path d="M1583 4772 c-76 -163 -142 -340 -143 -379 0 -34 17 -5 40 65 29 90
69 186 132 317 14 30 18 49 12 55 -7 7 -21 -13 -41 -58z"/>
<path d="M1292 3950 c2 -272 6 -354 16 -358 9 -3 12 70 12 341 0 295 -2 346
-15 357 -14 11 -15 -26 -13 -340z"/>
<path d="M1746 3408 c5 -7 23 -33 39 -58 16 -25 39 -61 52 -81 l23 -35 0 -841
0 -840 -22 -29 c-12 -16 -45 -54 -72 -84 l-51 -55 275 -3 c395 -4 468 14 601
149 143 146 218 369 240 722 35 555 -95 965 -346 1094 -115 60 -156 66 -465
70 -237 4 -282 3 -274 -9z m486 -129 c202 -43 295 -175 349 -494 31 -184 31
-538 0 -738 -35 -231 -90 -372 -185 -475 -35 -37 -107 -67 -189 -77 l-57 -7 0
832 0 832 93 -4 c74 -2 102 -8 144 -29 29 -14 49 -20 45 -13 -13 22 -67 61
-101 72 -36 13 -151 16 -188 6 l-23 -6 0 -845 0 -844 -27 3 -28 3 -3 898 -2
897 59 0 c33 0 84 -5 113 -11z"/>
<path d="M1522 3319 c3 -8 15 -44 27 -80 26 -78 93 -213 146 -293 l38 -58 -19
-46 -20 -47 -583 -3 c-547 -2 -582 -3 -579 -20 3 -16 41 -17 590 -20 l586 -2
12 37 c7 21 19 52 27 69 13 30 12 34 -35 110 -66 106 -99 172 -138 274 -17 46
-37 86 -44 88 -8 3 -11 -1 -8 -9z"/>
<path d="M2778 3099 c92 -176 132 -390 132 -706 0 -462 -100 -789 -293 -963
-59 -53 -137 -93 -230 -118 -84 -23 -114 -25 -359 -30 -228 -4 -266 -6 -261
-19 9 -23 544 -14 628 11 168 48 290 144 369 289 118 216 165 457 166 837 0
216 -11 326 -46 470 -25 106 -91 255 -126 287 -12 10 -4 -11 20 -58z"/>
<path d="M3010 2275 c0 -3 32 -49 71 -102 l70 -98 -4 -750 c-3 -504 -8 -766
-16 -800 -19 -83 -66 -166 -132 -232 l-63 -63 235 0 235 0 17 -35 c9 -20 17
-40 17 -45 0 -6 -100 -10 -260 -10 -258 0 -261 0 -250 -20 10 -19 21 -20 285
-20 151 0 275 2 275 5 0 3 -21 45 -47 93 -25 48 -62 116 -80 151 -29 53 -37
82 -44 155 -9 100 -12 1003 -3 993 7 -7 18 -49 49 -187 13 -58 32 -145 44
-195 12 -49 33 -142 47 -205 39 -173 60 -265 84 -370 13 -52 32 -140 44 -195
l22 -100 36 -3 c42 -4 44 -1 83 168 35 153 133 556 145 600 5 19 26 103 45
185 20 83 40 166 45 185 6 19 26 103 45 185 20 83 40 166 45 185 5 19 14 51
19 70 7 27 9 6 10 -90 1 -124 -12 -202 -73 -425 -8 -27 -23 -90 -35 -140 -38
-169 -91 -390 -101 -425 -5 -19 -24 -96 -42 -170 -17 -74 -48 -200 -67 -280
l-36 -145 -47 -3 c-40 -3 -45 -6 -41 -23 7 -27 99 -28 107 -1 2 9 28 111 56
227 28 116 55 228 61 250 11 43 33 135 74 305 14 58 34 141 45 185 11 44 31
127 46 185 56 230 52 255 53 -327 l1 -532 -71 -86 c-39 -47 -69 -88 -67 -91 3
-2 112 -3 243 -2 l237 3 -66 92 -66 92 0 818 0 818 66 100 c36 55 68 106 71
113 4 9 -51 12 -256 12 -180 0 -261 -3 -261 -11 0 -10 29 -57 97 -161 l24 -36
-41 -169 c-23 -92 -57 -233 -76 -313 -19 -80 -39 -161 -44 -180 -6 -19 -34
-134 -63 -254 -35 -142 -56 -213 -61 -201 -4 10 -18 71 -32 134 -14 64 -34
152 -44 196 -41 177 -73 314 -90 390 -43 190 -60 262 -70 295 -19 67 -14 82
55 150 49 48 62 67 54 77 -9 10 -22 0 -61 -43 -96 -104 -91 -89 -67 -190 11
-49 24 -105 29 -124 9 -33 27 -108 80 -340 12 -52 32 -140 44 -195 13 -55 38
-163 56 -240 17 -77 35 -151 39 -165 5 -14 4 -34 0 -45 -5 -11 -13 -40 -20
-65 -14 -56 -22 -43 -48 77 -11 48 -31 140 -45 203 -15 63 -35 156 -46 205
-11 50 -29 128 -41 175 -11 47 -31 137 -46 200 -14 63 -34 151 -44 195 -10 44
-25 113 -34 153 l-17 73 49 65 c26 36 58 78 71 94 12 15 22 33 22 39 0 8 -78
11 -265 11 -146 0 -265 -2 -265 -5z m260 -545 c18 -79 20 -127 20 -655 0 -642
1 -650 74 -761 21 -31 35 -58 33 -60 -10 -10 -76 39 -100 74 -64 92 -61 57
-64 837 -1 475 1 700 8 680 5 -16 19 -68 29 -115z"/>
<path d="M4408 2108 l-58 -60 0 -823 0 -822 46 -79 c25 -44 58 -99 74 -124 16
-25 29 -48 29 -52 1 -5 -114 -8 -255 -8 -238 0 -255 -1 -252 -17 3 -17 26 -18
286 -21 155 -1 282 0 282 3 0 3 -40 73 -90 155 l-90 149 0 813 0 814 60 59
c55 55 66 76 37 75 -7 -1 -38 -28 -69 -62z"/>
</g>
</svg>
